<svg width="207" height="27" viewBox="0 0 207 27" fill="none" xmlns="http://www.w3.org/2000/svg">
<path d="M10.9852 19.3129C10.9524 19.3512 10.9117 19.3819 10.866 19.403C10.8202 19.4241 10.7704 19.435 10.72 19.435C10.6696 19.435 10.6198 19.4241 10.574 19.403C10.5282 19.3819 10.4875 19.3512 10.4548 19.3129C9.53353 18.2354 6.52979 14.5104 6.52979 11.7511C6.52979 9.17971 8.14877 7.56101 10.7198 7.56101C13.2909 7.56101 14.9099 9.17971 14.9099 11.7511C14.9099 14.5104 11.9061 18.2354 10.9852 19.3129ZM11.1854 9.07408C11.1295 9.07396 11.0743 9.08727 11.0246 9.1129C10.9749 9.13853 10.9321 9.17572 10.8998 9.22135C10.8674 9.26698 10.8465 9.3197 10.8388 9.37509C10.8311 9.43048 10.8368 9.48692 10.8554 9.53965C10.8792 9.60844 10.9241 9.66798 10.9838 9.70977C11.0434 9.75156 11.1146 9.77349 11.1874 9.77243C11.6496 9.77343 12.0926 9.95747 12.4194 10.2843C12.7462 10.6111 12.9302 11.0541 12.9312 11.5162C12.9302 11.589 12.9521 11.6603 12.9939 11.7199C13.0357 11.7795 13.0952 11.8244 13.164 11.8482C13.2168 11.8669 13.2732 11.8726 13.3286 11.8649C13.384 11.8572 13.4367 11.8363 13.4823 11.8039C13.528 11.7716 13.5651 11.7288 13.5908 11.679C13.6164 11.6293 13.6297 11.5742 13.6296 11.5183C13.6289 10.8703 13.3712 10.249 12.9129 9.79074C12.4547 9.33251 11.8334 9.07478 11.1854 9.07408Z" fill="#4285F4"/>
<path d="M21.0928 3.54428L11.2055 0.174783C11.0862 0.134046 10.9261 0.113678 10.7661 0.113678C10.6061 0.113678 10.446 0.134046 10.3267 0.174783L0.439373 3.54428C0.197864 3.62575 0 3.90509 0 4.16115V18.1978C0 18.4539 0.165856 18.7914 0.366629 18.9514L10.3966 26.767C10.4984 26.8456 10.6293 26.8863 10.7632 26.8863C10.897 26.8863 11.0309 26.8456 11.1298 26.767L21.1597 18.9514C21.3605 18.7943 21.5264 18.4568 21.5264 18.1978V4.16115C21.5322 3.90509 21.3343 3.62866 21.0928 3.54428ZM19.4372 17.6391L10.7661 24.3956L2.09502 17.6391V5.19702L10.7661 2.24071L19.4372 5.19702V17.6391Z" fill="#403E3E"/>
<path d="M30.4361 25.155V10.9997H27.9402V7.9043H30.4361V5.40017C30.4361 3.52207 30.9048 2.17726 31.8422 1.36574C32.8031 0.531034 34.1506 0.113678 35.8849 0.113678H37.7128V3.24384H36.4473C35.6271 3.24384 35.0412 3.41774 34.6896 3.76553C34.3381 4.09014 34.1623 4.64661 34.1623 5.43495V7.9043H38.1698V10.9997H34.1623V25.155H30.4361ZM41.7203 25.155V0.113678H45.4466V25.155H41.7203ZM57.6418 25.5723C55.9779 25.5723 54.478 25.2013 53.1422 24.4594C51.8298 23.6942 50.7869 22.6392 50.0135 21.2944C49.2402 19.9264 48.8535 18.3382 48.8535 16.5296C48.8535 14.7211 49.2402 13.1444 50.0135 11.7996C50.8104 10.4316 51.8767 9.37661 53.2125 8.63467C54.5483 7.86952 56.0365 7.48694 57.677 7.48694C59.3409 7.48694 60.8291 7.86952 62.1415 8.63467C63.4773 9.37661 64.5319 10.4316 65.3053 11.7996C66.1021 13.1444 66.5005 14.7211 66.5005 16.5296C66.5005 18.3382 66.1021 19.9264 65.3053 21.2944C64.5319 22.6392 63.4773 23.6942 62.1415 24.4594C60.8056 25.2013 59.3057 25.5723 57.6418 25.5723ZM57.6418 22.4074C58.5324 22.4074 59.3526 22.1871 60.1026 21.7466C60.8759 21.306 61.497 20.6568 61.9657 19.7989C62.4344 18.9178 62.6688 17.828 62.6688 16.5296C62.6688 15.2312 62.4344 14.153 61.9657 13.2951C61.5204 12.4141 60.9111 11.7533 60.1377 11.3127C59.3878 10.8721 58.5675 10.6519 57.677 10.6519C56.7864 10.6519 55.9545 10.8721 55.1811 11.3127C54.4312 11.7533 53.8218 12.4141 53.3531 13.2951C52.8844 14.153 52.65 15.2312 52.65 16.5296C52.65 17.828 52.8844 18.9178 53.3531 19.7989C53.8218 20.6568 54.4312 21.306 55.1811 21.7466C55.931 22.1871 56.7513 22.4074 57.6418 22.4074ZM77.9828 25.5723C76.3189 25.5723 74.819 25.2013 73.4831 24.4594C72.1707 23.6942 71.1278 22.6392 70.3545 21.2944C69.5811 19.9264 69.1944 18.3382 69.1944 16.5296C69.1944 14.7211 69.5811 13.1444 70.3545 11.7996C71.1513 10.4316 72.2176 9.37661 73.5534 8.63467C74.8893 7.86952 76.3774 7.48694 78.0179 7.48694C79.6818 7.48694 81.17 7.86952 82.4824 8.63467C83.8182 9.37661 84.8728 10.4316 85.6462 11.7996C86.4432 13.1444 86.8414 14.7211 86.8414 16.5296C86.8414 18.3382 86.4432 19.9264 85.6462 21.2944C84.8728 22.6392 83.8182 23.6942 82.4824 24.4594C81.1466 25.2013 79.6467 25.5723 77.9828 25.5723ZM77.9828 22.4074C78.8733 22.4074 79.6936 22.1871 80.4435 21.7466C81.2169 21.306 81.8379 20.6568 82.3066 19.7989C82.7752 18.9178 83.0097 17.828 83.0097 16.5296C83.0097 15.2312 82.7752 14.153 82.3066 13.2951C81.8613 12.4141 81.252 11.7533 80.4787 11.3127C79.7287 10.8721 78.9085 10.6519 78.0179 10.6519C77.1274 10.6519 76.2954 10.8721 75.522 11.3127C74.7721 11.7533 74.1627 12.4141 73.694 13.2951C73.2253 14.153 72.991 15.2312 72.991 16.5296C72.991 17.828 73.2253 18.9178 73.694 19.7989C74.1627 20.6568 74.7721 21.306 75.522 21.7466C76.2719 22.1871 77.0922 22.4074 77.9828 22.4074ZM98.1131 25.5723C96.4257 25.5723 94.9372 25.1782 93.6486 24.3898C92.3594 23.6014 91.3515 22.5233 90.6254 21.1553C89.8987 19.7873 89.5356 18.2338 89.5356 16.4948C89.5356 14.7559 89.8987 13.214 90.6254 11.8692C91.3515 10.5012 92.3594 9.4346 93.6486 8.66945C94.9608 7.88109 96.4608 7.48694 98.1482 7.48694C99.5307 7.48694 100.737 7.7536 101.769 8.28687C102.824 8.82014 103.644 9.57372 104.23 10.5475V0.113678H107.956V25.155H104.616L104.23 22.4769C103.667 23.2884 102.894 24.0072 101.91 24.6333C100.925 25.2593 99.6598 25.5723 98.1131 25.5723ZM98.781 22.3726C100.374 22.3726 101.675 21.8277 102.683 20.7379C103.714 19.6482 104.23 18.2454 104.23 16.5296C104.23 14.7906 103.714 13.3879 102.683 12.3213C101.675 11.2316 100.374 10.6867 98.781 10.6867C97.187 10.6867 95.8748 11.2316 94.8438 12.3213C93.8122 13.3879 93.297 14.7906 93.297 16.5296C93.297 17.6658 93.531 18.6744 94.0001 19.5554C94.4686 20.4365 95.1129 21.1321 95.9335 21.6422C96.7772 22.1291 97.7264 22.3726 98.781 22.3726ZM112.091 25.155V0.80927H115.818V25.155H112.091ZM119.968 25.155V7.9043H123.272L123.553 10.9301C124.092 9.86353 124.877 9.02882 125.908 8.42599C126.963 7.79996 128.17 7.48694 129.529 7.48694C131.638 7.48694 133.291 8.13618 134.486 9.4346C135.705 10.733 136.314 12.6691 136.314 15.2428V25.155H132.623V15.6254C132.623 12.2865 131.24 10.6171 128.475 10.6171C127.092 10.6171 125.944 11.104 125.03 12.0778C124.139 13.0517 123.694 14.4429 123.694 16.2514V25.155H119.968ZM146.96 25.5723C144.757 25.5723 142.941 25.039 141.511 23.9724C140.081 22.9059 139.261 21.4915 139.05 19.7293H142.812C142.999 20.5177 143.445 21.2017 144.148 21.7813C144.851 22.3378 145.776 22.616 146.925 22.616C148.05 22.616 148.87 22.3842 149.385 21.9205C149.901 21.4567 150.159 20.9234 150.159 20.3206C150.159 19.4395 149.796 18.8483 149.069 18.5468C148.366 18.2222 147.382 17.9324 146.116 17.6773C145.132 17.4687 144.148 17.1904 143.163 16.8426C142.203 16.4948 141.394 16.0079 140.738 15.3819C140.105 14.7327 139.789 13.8632 139.789 12.7734C139.789 11.2663 140.375 10.0143 141.546 9.01724C142.718 7.99706 144.359 7.48694 146.468 7.48694C148.413 7.48694 149.983 7.95065 151.178 8.87812C152.397 9.8056 153.112 11.1156 153.323 12.8082H149.737C149.62 12.0663 149.268 11.4866 148.682 11.0692C148.12 10.6519 147.358 10.4432 146.397 10.4432C145.46 10.4432 144.734 10.6403 144.218 11.0345C143.702 11.4055 143.445 11.8924 143.445 12.4952C143.445 13.098 143.796 13.5734 144.499 13.9212C145.226 14.269 146.175 14.582 147.347 14.8602C148.518 15.1152 149.596 15.4167 150.581 15.7645C151.589 16.0891 152.397 16.576 153.006 17.2252C153.615 17.8745 153.92 18.8251 153.92 20.0771C153.944 21.6538 153.323 22.9638 152.057 24.0072C150.815 25.0506 149.116 25.5723 146.96 25.5723ZM163.718 25.5723C161.609 25.5723 159.945 24.9231 158.726 23.6247C157.531 22.3262 156.934 20.3902 156.934 17.8165V7.9043H160.66V17.4339C160.66 20.7727 162.042 22.4421 164.808 22.4421C166.19 22.4421 167.327 21.9552 168.218 20.9814C169.108 20.0076 169.554 18.6164 169.554 16.8079V7.9043H173.28V25.155H169.975L169.694 22.1291C169.155 23.1957 168.358 24.042 167.304 24.668C166.273 25.2709 165.078 25.5723 163.718 25.5723ZM177.317 25.155V7.9043H180.657L180.973 11.1736C181.582 10.0374 182.426 9.14479 183.504 8.49555C184.605 7.82316 185.93 7.48694 187.476 7.48694V11.3475H186.457C185.426 11.3475 184.5 11.5214 183.68 11.8692C182.883 12.1938 182.239 12.7619 181.746 13.5734C181.278 14.3617 181.043 15.463 181.043 16.8774V25.155H177.317ZM197.643 25.5723C195.932 25.5723 194.409 25.2013 193.074 24.4594C191.761 23.6942 190.73 22.6392 189.98 21.2944C189.23 19.9496 188.855 18.3845 188.855 16.5992C188.855 14.7906 189.218 13.2024 189.945 11.8344C190.695 10.4664 191.726 9.39982 193.038 8.63467C194.374 7.86952 195.921 7.48694 197.679 7.48694C199.389 7.48694 200.878 7.86952 202.143 8.63467C203.409 9.37661 204.393 10.3736 205.096 11.6257C205.799 12.8778 206.151 14.2574 206.151 15.7645C206.151 15.9964 206.139 16.2514 206.115 16.5296C206.115 16.7847 206.103 17.0745 206.08 17.3991H192.511C192.628 19.0685 193.179 20.3438 194.163 21.2249C195.171 22.0828 196.331 22.5117 197.643 22.5117C198.698 22.5117 199.577 22.2798 200.28 21.8161C201.006 21.3292 201.545 20.68 201.897 19.8685H205.623C205.154 21.4915 204.217 22.8479 202.811 23.9377C201.428 25.0274 199.705 25.5723 197.643 25.5723ZM197.643 10.5128C196.401 10.5128 195.3 10.8838 194.339 11.6257C193.378 12.3445 192.792 13.4342 192.581 14.895H202.424C202.354 13.5502 201.873 12.4836 200.983 11.6953C200.092 10.9069 198.979 10.5128 197.643 10.5128Z" fill="#403E3E"/>
</svg>
