<svg width="194" height="52" viewBox="0 0 194 52" fill="none" xmlns="http://www.w3.org/2000/svg">
<path d="M24.9114 2.39814H34.1258V29.5437H26.7698L26.9246 13.8769L22.8982 25.3944L21.1947 29.5437H14.1872L12.4837 25.278L8.61209 13.9932V29.5437H1.2561V2.39814H10.8576L17.7877 21.7879L24.9114 2.39814ZM48.4993 30.0867C41.9176 30.0867 37.8137 26.1312 37.8137 19.8489C37.8137 13.5666 41.9176 9.61112 48.4993 9.61112C55.0422 9.61112 59.1461 13.5666 59.1461 19.8489C59.1461 26.1312 55.0422 30.0867 48.4993 30.0867ZM48.4993 24.4249C50.2802 24.4249 51.403 22.641 51.403 19.8489C51.403 17.0568 50.2802 15.2729 48.4993 15.2729C46.6796 15.2729 45.5569 17.0568 45.5569 19.8489C45.5569 22.641 46.6796 24.4249 48.4993 24.4249ZM74.6164 9.61112C78.7977 9.61112 81.3916 12.5971 81.3916 17.3282V29.5437H74.0356V17.8711C74.0356 16.32 73.1452 15.3505 71.7514 15.3505C70.2802 15.3505 69.351 16.4751 69.351 18.2589L69.3897 29.5437H62.0337V10.154H68.4219V13.7605C69.3897 11.1623 71.5965 9.61112 74.6164 9.61112ZM88.5867 8.3314C86.3799 8.3314 84.6377 6.58632 84.6377 4.37589C84.6377 2.20424 86.3799 0.459167 88.5867 0.459167C90.7548 0.459167 92.497 2.20424 92.497 4.37589C92.497 6.58632 90.7548 8.3314 88.5867 8.3314ZM92.226 29.5437H84.87V10.154H92.226V29.5437ZM106.397 25.2392C107.83 25.2392 108.837 24.5024 109.379 23.1451L115.379 24.1534C114.373 27.7987 110.888 30.0867 105.855 30.0867C99.3125 30.0867 95.1312 26.2863 95.1312 19.7326C95.1312 13.6054 98.7704 9.61112 105.507 9.61112C111.934 9.61112 115.612 13.2176 115.612 21.5164H102.99C103.339 23.882 104.423 25.2392 106.397 25.2392ZM105.468 14.4585C103.958 14.4585 103.184 15.5832 102.952 17.9099H107.869C107.675 15.5832 106.978 14.4585 105.468 14.4585ZM118.293 29.5437V1.23476H125.649V29.5437H118.293ZM138.93 9.61112C144.466 9.61112 147.873 12.3257 147.873 16.6302V29.5437H141.523V26.7904C140.401 28.8845 138.233 30.0867 135.29 30.0867C131.225 30.0867 128.67 27.7987 128.67 24.2697C128.67 20.4306 131.728 18.065 136.916 18.065C138.233 18.065 139.588 18.2202 140.633 18.4916V16.7853C140.633 15.3505 139.936 14.4585 138.813 14.4585C137.768 14.4585 136.955 15.2341 136.529 16.5914L129.56 15.428C130.528 11.7828 134.013 9.61112 138.93 9.61112ZM138.078 25.4719C139.665 25.4719 140.633 24.3473 140.633 22.6022V21.7879C139.897 21.5552 139.123 21.4001 138.465 21.4001C136.878 21.4001 135.91 22.2144 135.91 23.4942C135.91 24.6963 136.761 25.4719 138.078 25.4719ZM163.844 9.61112C168.025 9.61112 170.619 12.5971 170.619 17.3282V29.5437H163.263V17.8711C163.263 16.32 162.373 15.3505 160.979 15.3505C159.508 15.3505 158.579 16.4751 158.579 18.2589L158.617 29.5437H151.261V10.154H157.65V13.7605C158.617 11.1623 160.824 9.61112 163.844 9.61112ZM184.396 25.2392C185.829 25.2392 186.835 24.5024 187.377 23.1451L193.378 24.1534C192.371 27.7987 188.887 30.0867 183.854 30.0867C177.311 30.0867 173.13 26.2863 173.13 19.7326C173.13 13.6054 176.769 9.61112 183.506 9.61112C189.932 9.61112 193.61 13.2176 193.61 21.5164H180.989C181.337 23.882 182.422 25.2392 184.396 25.2392ZM183.467 14.4585C181.957 14.4585 181.183 15.5832 180.95 17.9099H185.867C185.674 15.5832 184.977 14.4585 183.467 14.4585Z" fill="#838383"/>
<g clip-path="url(#clip0_47_1699)">
<path d="M1.39697 50.5084V37.4996H3.71997L8.12436 46.1598L12.5101 37.4996H14.8331V50.5084H12.8632V40.9005L8.8863 48.65H7.36242L3.36687 40.9191V50.5084H1.39697ZM22.6386 50.5084V37.4996H24.6085V50.5084H22.6386ZM38.2087 50.7314C36.9202 50.7314 35.8052 50.4527 34.8636 49.8951C33.9344 49.3252 33.2158 48.5385 32.7079 47.535C32.1999 46.5191 31.9459 45.3483 31.9459 44.0226C31.9459 42.6846 32.1999 41.5138 32.7079 40.5102C33.2158 39.4943 33.9344 38.7014 34.8636 38.1315C35.8052 37.5616 36.9202 37.2766 38.2087 37.2766C39.7326 37.2766 40.9777 37.6483 41.9441 38.3917C42.9105 39.135 43.5237 40.1757 43.7839 41.5138H41.591C41.4175 40.758 41.0459 40.1572 40.476 39.7111C39.9061 39.2651 39.1441 39.0421 38.1901 39.0421C36.8893 39.0421 35.861 39.4881 35.1052 40.3802C34.3495 41.2598 33.9716 42.4739 33.9716 44.0226C33.9716 45.5589 34.3495 46.7668 35.1052 47.6465C35.861 48.5261 36.8893 48.9659 38.1901 48.9659C39.1441 48.9659 39.9061 48.7553 40.476 48.3341C41.0459 47.9128 41.4175 47.3367 41.591 46.6058H43.7839C43.5237 47.8943 42.9105 48.904 41.9441 49.635C40.9777 50.3659 39.7326 50.7314 38.2087 50.7314ZM51.1114 50.5084V37.4996H55.5902C56.6185 37.4996 57.461 37.6731 58.1176 38.02C58.7866 38.3669 59.2822 38.8377 59.6043 39.4324C59.9264 40.0147 60.0875 40.6651 60.0875 41.3837C60.0875 42.189 59.8707 42.92 59.437 43.5766C59.0158 44.2332 58.353 44.704 57.4486 44.989L60.2176 50.5084H57.9317L55.4043 45.2677H53.0813V50.5084H51.1114ZM53.0813 43.781H55.4787C56.3707 43.781 57.0211 43.5642 57.43 43.1306C57.8512 42.697 58.0618 42.1332 58.0618 41.4394C58.0618 40.7456 57.8574 40.1943 57.4486 39.7855C57.0397 39.3642 56.3769 39.1536 55.4601 39.1536H53.0813V43.781ZM73.5826 50.7314C72.2941 50.7314 71.1667 50.4465 70.2003 49.8765C69.234 49.3066 68.4782 48.5199 67.9331 47.5164C67.388 46.5005 67.1154 45.3297 67.1154 44.004C67.1154 42.6784 67.388 41.5138 67.9331 40.5102C68.4782 39.4943 69.234 38.7014 70.2003 38.1315C71.1667 37.5616 72.2941 37.2766 73.5826 37.2766C74.8711 37.2766 75.9985 37.5616 76.9649 38.1315C77.9313 38.7014 78.6808 39.4943 79.2135 40.5102C79.7587 41.5138 80.0312 42.6784 80.0312 44.004C80.0312 45.3297 79.7587 46.5005 79.2135 47.5164C78.6808 48.5199 77.9313 49.3066 76.9649 49.8765C75.9985 50.4465 74.8711 50.7314 73.5826 50.7314ZM73.5826 48.9659C74.4746 48.9659 75.249 48.7677 75.9056 48.3712C76.5746 47.9748 77.095 47.4049 77.4667 46.6615C77.8383 45.9182 78.0242 45.0323 78.0242 44.004C78.0242 42.9757 77.8383 42.0899 77.4667 41.3465C77.095 40.6032 76.5746 40.0333 75.9056 39.6368C75.249 39.2403 74.4746 39.0421 73.5826 39.0421C72.6906 39.0421 71.9101 39.2403 71.241 39.6368C70.572 40.0333 70.0517 40.6032 69.68 41.3465C69.3207 42.0899 69.1411 42.9757 69.1411 44.004C69.1411 45.0323 69.3207 45.9182 69.68 46.6615C70.0517 47.4049 70.572 47.9748 71.241 48.3712C71.9101 48.7677 72.6906 48.9659 73.5826 48.9659ZM87.388 50.5084V37.4996H95.5463V39.0979H89.3579V43.2049H94.4871V44.7846H89.3579V50.5084H87.388ZM102.641 50.5084V37.4996H104.611V50.5084H102.641ZM112.412 50.5084V37.4996H114.382L120.905 47.2934V37.4996H122.875V50.5084H120.905L114.382 40.7147V50.5084H112.412ZM129.842 50.5084L134.636 37.4996H136.792L141.55 50.5084H139.468L138.353 47.3305H133.038L131.923 50.5084H129.842ZM133.596 45.7695H137.796L135.696 39.8412L133.596 45.7695ZM148.526 50.5084V37.4996H150.496L157.019 47.2934V37.4996H158.989V50.5084H157.019L150.496 40.7147V50.5084H148.526ZM172.589 50.7314C171.3 50.7314 170.185 50.4527 169.244 49.8951C168.315 49.3252 167.596 48.5385 167.088 47.535C166.58 46.5191 166.326 45.3483 166.326 44.0226C166.326 42.6846 166.58 41.5138 167.088 40.5102C167.596 39.4943 168.315 38.7014 169.244 38.1315C170.185 37.5616 171.3 37.2766 172.589 37.2766C174.113 37.2766 175.358 37.6483 176.324 38.3917C177.291 39.135 177.904 40.1757 178.164 41.5138H175.971C175.798 40.758 175.426 40.1572 174.856 39.7111C174.286 39.2651 173.524 39.0421 172.57 39.0421C171.269 39.0421 170.241 39.4881 169.485 40.3802C168.73 41.2598 168.352 42.4739 168.352 44.0226C168.352 45.5589 168.73 46.7668 169.485 47.6465C170.241 48.5261 171.269 48.9659 172.57 48.9659C173.524 48.9659 174.286 48.7553 174.856 48.3341C175.426 47.9128 175.798 47.3367 175.971 46.6058H178.164C177.904 47.8943 177.291 48.904 176.324 49.635C175.358 50.3659 174.113 50.7314 172.589 50.7314ZM185.492 50.5084V37.4996H193.762V39.0979H187.462V43.1492H193.205V44.7102H187.462V48.9102H193.762V50.5084H185.492Z" fill="#838383"/>
</g>
<defs>
<clipPath id="clip0_47_1699">
<rect width="193.066" height="14.4542" fill="white" transform="translate(0.900146 37.0867)"/>
</clipPath>
</defs>
</svg>
